<?xml version="1.0" standalone="no"?>
<!DOCTYPE svg PUBLIC "-//W3C//DTD SVG 20010904//EN"
 "http://www.w3.org/TR/2001/REC-SVG-20010904/DTD/svg10.dtd">
<svg version="1.0" xmlns="http://www.w3.org/2000/svg"
 width="512.000000pt" height="512.000000pt" viewBox="0 0 512.000000 512.000000"
 preserveAspectRatio="xMidYMid meet">

<g transform="translate(0.000000,512.000000) scale(0.100000,-0.100000)"
fill="#000000" stroke="none">
<path d="M1984 4729 c-116 -44 -194 -157 -195 -282 -1 -37 7 -89 16 -117 22
-65 92 -142 160 -175 l54 -27 3 -158 c3 -181 11 -200 78 -200 67 0 75 18 78
202 l3 159 44 19 c59 25 125 88 155 147 21 41 25 62 25 143 0 87 -3 100 -30
149 -75 135 -245 197 -391 140z m212 -164 c121 -92 56 -285 -96 -285 -114 0
-191 118 -146 223 39 94 160 125 242 62z"/>
<path d="M2897 4735 c-90 -34 -173 -123 -197 -210 -7 -27 -11 -73 -8 -114 9
-126 87 -226 211 -271 l27 -10 0 -159 c0 -137 2 -162 18 -180 26 -33 79 -31
109 3 22 26 23 34 23 181 l0 154 48 21 c26 12 68 42 94 67 151 148 114 396
-73 498 -44 24 -68 29 -134 32 -53 2 -93 -2 -118 -12z m192 -162 c52 -39 73
-83 69 -144 -5 -65 -32 -109 -82 -133 -142 -67 -285 76 -214 214 43 83 157
115 227 63z"/>
<path d="M1885 3559 c-164 -25 -300 -157 -335 -325 -7 -33 -10 -274 -8 -705
l3 -654 23 -58 c48 -117 160 -219 275 -249 41 -10 195 -13 737 -13 680 0 685
0 743 22 116 44 206 134 250 250 22 58 22 63 22 733 0 670 0 675 -22 733 -44
116 -134 206 -250 250 -57 22 -66 22 -718 24 -363 0 -687 -3 -720 -8z m1405
-170 c60 -27 98 -64 126 -124 l24 -50 0 -655 c0 -637 -1 -656 -21 -700 -27
-60 -64 -98 -124 -126 l-50 -24 -675 0 -675 0 -50 24 c-55 25 -110 81 -131
132 -21 49 -21 1339 0 1388 21 51 76 107 131 132 l50 24 675 0 c658 0 676 -1
720 -21z"/>
<path d="M2315 3040 c-11 -4 -30 -19 -42 -32 -31 -33 -363 -784 -363 -820 0
-36 40 -78 74 -78 39 0 73 38 109 125 l34 80 234 0 234 0 42 -87 c24 -49 53
-94 67 -103 49 -32 116 5 116 64 0 23 -315 749 -347 799 -31 50 -105 74 -158
52z m145 -398 c39 -90 68 -168 65 -173 -8 -12 -312 -12 -320 0 -5 10 127 324
147 348 18 22 31 1 108 -175z"/>
<path d="M3005 3025 l-25 -24 0 -416 c0 -247 4 -424 10 -434 5 -10 23 -24 40
-31 35 -15 84 0 100 31 6 10 10 187 10 434 l0 416 -25 24 c-15 16 -36 25 -55
25 -19 0 -40 -9 -55 -25z"/>
<path d="M4387 3329 c-100 -15 -196 -89 -238 -184 l-19 -44 -160 -3 c-149 -3
-161 -4 -181 -25 -29 -29 -29 -77 0 -106 20 -21 32 -22 181 -25 l160 -3 26
-54 c32 -69 108 -138 176 -161 120 -40 269 0 345 93 185 225 -1 554 -290 512z
m117 -163 c18 -8 46 -31 62 -52 24 -31 29 -47 29 -94 0 -47 -5 -63 -29 -94
-93 -122 -286 -59 -286 94 0 114 117 191 224 146z"/>
<path d="M584 3300 c-75 -24 -139 -79 -179 -151 -27 -49 -30 -63 -30 -144 0
-105 20 -158 86 -224 66 -66 119 -86 224 -86 81 0 95 3 144 30 72 40 122 99
151 178 l10 27 159 0 c137 0 162 2 180 18 33 26 31 79 -3 109 -26 22 -34 23
-181 23 l-154 0 -21 48 c-62 144 -235 221 -386 172z m172 -156 c50 -24 77 -68
82 -133 4 -61 -17 -105 -69 -144 -70 -52 -184 -20 -227 63 -71 138 72 281 214
214z"/>
<path d="M4337 2416 c-87 -32 -165 -109 -193 -189 l-11 -32 -166 -5 c-185 -6
-197 -10 -199 -70 -1 -25 6 -40 26 -57 26 -22 34 -23 181 -23 l154 0 21 -48
c12 -27 42 -70 68 -95 83 -81 184 -110 290 -83 101 26 165 76 215 170 32 60
31 202 -1 268 -30 60 -90 120 -150 150 -58 28 -177 35 -235 14z m173 -158 c59
-30 93 -93 87 -157 -8 -78 -77 -141 -154 -141 -89 0 -151 53 -161 135 -6 57 2
86 35 126 52 61 119 74 193 37z"/>
<path d="M542 2379 c-107 -53 -172 -159 -172 -279 0 -172 134 -310 303 -311
37 -1 89 7 117 16 66 22 142 92 174 160 l26 54 159 3 c183 3 201 11 201 78 0
67 -18 75 -201 78 l-159 3 -26 54 c-31 66 -108 137 -171 159 -26 9 -79 16
-118 16 -60 0 -82 -5 -133 -31z m219 -142 c51 -34 79 -82 79 -135 0 -155 -192
-220 -286 -96 -24 31 -29 47 -29 94 0 47 5 63 29 94 51 67 143 86 207 43z"/>
<path d="M2093 1349 c-46 -17 -53 -43 -53 -206 l0 -152 -48 -21 c-62 -27 -135
-100 -163 -165 -28 -63 -31 -159 -6 -232 23 -65 80 -130 148 -168 49 -27 63
-30 144 -30 105 0 158 20 224 86 66 66 86 119 86 224 0 81 -3 95 -30 144 -40
72 -99 122 -177 151 l-28 10 0 158 c0 122 -3 162 -15 179 -16 23 -52 33 -82
22z m107 -531 c77 -53 98 -130 58 -208 -30 -59 -93 -93 -157 -87 -50 5 -86 29
-119 78 -30 44 -28 129 6 176 45 63 149 83 212 41z"/>
<path d="M2964 1329 c-17 -18 -19 -40 -22 -179 l-3 -158 -54 -27 c-69 -33
-138 -110 -161 -177 -25 -77 -16 -188 21 -257 120 -220 444 -213 555 12 36 75
42 165 15 247 -22 65 -92 142 -160 175 l-54 27 -3 158 c-3 181 -11 200 -78
200 -25 0 -43 -7 -56 -21z m137 -512 c100 -67 106 -192 13 -263 -31 -24 -47
-29 -94 -29 -47 0 -63 5 -94 29 -93 71 -87 196 13 263 46 31 116 31 162 0z"/>
</g>
</svg>
