<?xml version="1.0" standalone="no"?>
<!DOCTYPE svg PUBLIC "-//W3C//DTD SVG 20010904//EN"
 "http://www.w3.org/TR/2001/REC-SVG-20010904/DTD/svg10.dtd">
<svg version="1.0" xmlns="http://www.w3.org/2000/svg"
 width="512.000000pt" height="511.000000pt" viewBox="0 0 512.000000 511.000000"
 preserveAspectRatio="xMidYMid meet">

<g transform="translate(0.000000,511.000000) scale(0.100000,-0.100000)"
fill="#000000" stroke="none">
<path d="M2514 5084 c-133 -88 -273 -280 -310 -424 -46 -180 34 -382 223 -566
l73 -70 0 -177 0 -178 -48 48 c-60 60 -147 107 -249 135 -94 25 -351 32 -390
10 -32 -18 -38 -49 -38 -207 1 -115 5 -155 24 -222 54 -194 178 -315 376 -369
33 -9 119 -18 193 -21 l132 -6 0 -158 c0 -88 -2 -159 -5 -159 -2 0 -21 18 -42
40 -54 56 -140 104 -236 131 -67 19 -108 23 -222 23 -157 1 -189 -5 -207 -37
-21 -36 -17 -306 6 -387 42 -145 112 -249 212 -312 95 -61 257 -98 421 -98
l73 0 0 -744 0 -743 -77 -7 c-42 -3 -130 -6 -197 -6 -264 0 -784 -51 -1123
-110 -94 -17 -176 -30 -182 -30 -8 0 -11 67 -11 218 l0 217 123 1 c151 1 250
22 356 75 89 44 174 127 215 207 59 116 87 291 76 465 -9 132 -9 132 -218 132
-144 -1 -178 -4 -247 -24 -109 -31 -186 -74 -251 -139 l-54 -54 0 180 0 179
143 6 c159 5 227 20 333 72 213 104 316 342 293 680 -7 114 -15 121 -142 130
-235 18 -467 -52 -578 -172 l-49 -55 0 199 0 199 71 69 c298 295 330 577 98
870 -87 111 -197 205 -238 205 -57 0 -232 -178 -312 -318 -100 -175 -103 -335
-11 -518 40 -78 134 -197 206 -259 l56 -49 0 -77 0 -77 -62 62 c-117 115 -255
161 -488 161 -163 0 -194 -6 -212 -38 -20 -36 -17 -295 5 -392 69 -296 264
-438 622 -451 l130 -4 3 -182 2 -182 -55 56 c-38 40 -80 69 -137 97 -112 54
-210 73 -380 73 -203 0 -203 0 -203 -227 1 -163 23 -265 82 -377 63 -120 186
-213 338 -254 36 -10 118 -18 208 -21 l147 -5 0 -357 0 -356 -122 -34 c-321
-86 -636 -234 -654 -305 -3 -13 -1 -34 6 -45 18 -36 76 -28 156 20 326 199
958 339 1799 401 224 16 959 16 1190 0 831 -59 1508 -212 1819 -410 57 -36
105 -41 129 -14 39 42 15 79 -90 140 -132 77 -342 157 -603 230 l-65 18 -3
356 -2 356 147 5 c90 3 172 11 208 21 152 41 275 134 338 254 59 112 81 214
82 377 0 227 -1 228 -203 228 -170 -1 -269 -20 -380 -74 -57 -28 -99 -57 -137
-97 l-55 -56 2 182 3 182 130 4 c358 13 553 155 622 451 22 97 25 356 5 392
-18 32 -49 38 -212 38 -233 0 -371 -46 -487 -161 l-63 -62 0 78 0 78 46 37
c72 59 169 179 212 263 97 186 95 346 -7 524 -80 140 -255 318 -312 318 -63 0
-246 -189 -323 -333 -55 -105 -69 -164 -64 -276 7 -159 64 -272 221 -436 l97
-103 0 -197 0 -197 -49 55 c-111 120 -343 190 -578 172 -127 -9 -135 -16 -142
-130 -23 -338 80 -576 293 -680 106 -52 174 -67 334 -72 l142 -6 0 -179 0
-180 -54 54 c-65 65 -142 108 -251 139 -69 20 -103 23 -247 24 -209 0 -209 0
-218 -132 -11 -174 17 -349 76 -465 41 -80 126 -163 215 -207 106 -53 205 -74
356 -75 l123 -1 0 -219 0 -219 -32 6 c-18 3 -98 17 -178 31 -304 53 -847 106
-1100 106 -63 0 -152 3 -198 7 l-82 6 2 379 3 379 120 4 c329 11 510 139 581
410 14 53 19 107 19 222 0 207 10 198 -208 198 -148 0 -169 -3 -247 -27 -96
-31 -165 -70 -227 -131 l-43 -41 0 160 0 161 133 6 c321 13 496 134 568 390
19 67 23 107 24 222 0 158 -6 189 -38 207 -37 21 -286 17 -377 -6 -104 -26
-194 -72 -252 -128 -27 -26 -51 -48 -54 -48 -2 0 -4 72 -4 160 l0 160 104 0
c262 0 456 92 544 258 56 105 76 199 77 357 0 77 -3 152 -7 166 -12 42 -56 54
-198 53 -209 -2 -364 -52 -463 -150 -25 -24 -48 -44 -51 -44 -3 0 -6 27 -6 59
l0 59 60 52 c109 94 204 240 235 360 52 200 -51 433 -273 618 -65 54 -81 58
-128 26z m207 -302 c92 -138 104 -259 37 -393 -40 -80 -117 -180 -168 -217
l-31 -23 -37 32 c-59 52 -133 149 -166 219 -27 57 -31 76 -31 151 0 80 2 90
42 171 31 62 64 107 118 164 l74 79 56 -55 c31 -30 79 -88 106 -128z m496
-924 c-6 -137 -21 -197 -69 -278 -76 -126 -251 -195 -460 -182 l-48 3 0 87 c1
260 96 408 300 466 70 19 97 23 199 25 l84 1 -6 -122z m-2299 28 c243 -260
246 -481 8 -732 l-84 -89 -68 70 c-225 229 -252 439 -85 660 47 63 141 155
157 155 6 0 39 -29 72 -64z m3421 12 c263 -257 266 -500 8 -762 l-68 -70 -60
60 c-219 214 -258 418 -120 631 44 68 157 193 175 193 7 0 36 -23 65 -52z
m-2203 -163 c234 -45 343 -197 344 -477 l0 -88 -97 0 c-164 0 -305 49 -375
129 -69 78 -107 206 -108 359 l0 92 79 0 c44 0 114 -7 157 -15z m1084 -808 c0
-102 -24 -216 -60 -287 -65 -128 -216 -199 -427 -200 l-93 0 0 88 c1 332 156
488 488 491 l92 1 0 -93z m-2797 -46 c100 -26 149 -53 209 -112 87 -87 128
-213 128 -396 l0 -103 -87 0 c-184 1 -328 47 -412 131 -84 84 -131 231 -131
410 l0 89 108 0 c75 0 132 -6 185 -19z m4564 -108 c-8 -183 -44 -287 -129
-373 -83 -83 -228 -129 -410 -130 l-88 0 0 103 c0 184 41 309 130 397 88 89
206 128 394 129 l109 1 -6 -127z m-2852 6 c230 -42 344 -202 345 -483 l0 -89
-117 6 c-173 8 -263 40 -343 119 -77 77 -120 207 -120 371 l0 87 88 0 c49 0
115 -5 147 -11z m-579 -165 c9 -61 -10 -224 -35 -295 -51 -149 -152 -236 -317
-275 -68 -15 -254 -21 -275 -8 -16 10 -6 200 16 284 22 86 69 172 118 216 85
78 228 121 399 123 l87 1 7 -46z m2257 31 c251 -44 369 -195 383 -489 3 -56 1
-107 -4 -115 -7 -10 -36 -13 -110 -13 -260 2 -423 100 -483 292 -26 85 -43
220 -34 287 l6 53 82 0 c45 -1 117 -7 160 -15z m-593 -672 c-1 -220 -73 -369
-214 -438 -65 -32 -185 -55 -287 -55 l-79 0 0 88 c1 214 68 361 198 430 81 43
158 60 280 61 l102 1 0 -87z m-2795 -118 c228 -60 334 -221 335 -506 l0 -96
-49 -7 c-27 -3 -90 -2 -141 4 -253 29 -382 140 -426 368 -15 78 -19 243 -6
257 11 12 220 -2 287 -20z m4549 19 c21 -8 22 -152 1 -259 -43 -225 -172 -336
-425 -365 -51 -6 -114 -7 -141 -4 l-49 7 0 102 c0 148 43 296 108 371 60 70
168 122 292 143 65 10 192 13 214 5z m-3418 -289 c13 -90 -18 -269 -61 -355
-75 -148 -208 -216 -442 -227 l-122 -6 -7 28 c-10 39 3 199 21 270 59 227 217
333 497 334 l107 1 7 -45z m2296 26 c183 -47 277 -139 323 -315 18 -70 31
-232 21 -270 -6 -26 -8 -26 -94 -26 -294 0 -465 113 -516 342 -20 87 -29 199
-21 247 l7 41 102 0 c69 0 128 -6 178 -19z"/>
</g>
</svg>
