<?xml version="1.0" standalone="no"?>
<!DOCTYPE svg PUBLIC "-//W3C//DTD SVG 20010904//EN"
 "http://www.w3.org/TR/2001/REC-SVG-20010904/DTD/svg10.dtd">
<svg version="1.0" xmlns="http://www.w3.org/2000/svg"
 width="512.000000pt" height="512.000000pt" viewBox="0 0 512.000000 512.000000"
 preserveAspectRatio="xMidYMid meet">

<g transform="translate(0.000000,512.000000) scale(0.100000,-0.100000)"
fill="#000000" stroke="none">
<path d="M890 4428 c-77 -30 -169 -123 -199 -201 -21 -59 -21 -63 -19 -655 l3
-597 26 -55 c31 -66 96 -133 160 -165 84 -43 140 -46 719 -43 l545 3 67 32
c84 40 141 97 181 181 l32 67 3 545 c2 367 -1 566 -8 609 -21 122 -94 220
-198 269 l-57 27 -600 2 c-590 2 -601 2 -655 -19z m1227 -197 c30 -14 48 -31
62 -60 20 -39 21 -55 21 -587 0 -603 1 -590 -64 -637 l-31 -22 -558 -3 -558
-2 -40 22 c-25 14 -46 37 -59 63 -19 40 -20 62 -20 578 0 355 4 545 11 564 14
37 47 73 84 89 24 10 142 13 570 13 510 1 542 -1 582 -18z"/>
<path d="M2938 4426 c-118 -48 -192 -141 -218 -271 -8 -42 -10 -222 -8 -610
l3 -550 32 -67 c53 -113 146 -186 265 -208 72 -14 1069 -13 1143 1 116 21 211
93 263 199 l27 55 3 597 c2 592 2 596 -19 655 -30 80 -122 171 -202 201 -57
22 -67 22 -645 22 l-587 0 -57 -24z m1238 -202 c15 -11 37 -33 48 -48 21 -27
21 -40 24 -578 2 -535 2 -552 -18 -592 -13 -27 -34 -50 -59 -64 l-40 -22 -558
2 -558 3 -31 22 c-65 47 -64 34 -64 637 0 532 1 548 21 587 14 29 32 46 62 60
40 18 68 19 594 16 540 -2 552 -2 579 -23z"/>
<path d="M954 2400 c-104 -21 -207 -103 -253 -200 l-26 -55 -3 -597 c-2 -592
-2 -596 19 -655 31 -80 122 -171 202 -202 59 -21 63 -21 655 -19 l597 3 55 26
c66 31 133 96 165 160 43 84 46 140 43 719 -3 511 -4 548 -22 590 -45 105
-110 170 -214 215 -45 19 -71 20 -612 22 -311 1 -584 -3 -606 -7z m1162 -216
c19 -9 44 -31 57 -48 l22 -31 3 -558 2 -558 -22 -40 c-14 -25 -37 -46 -64 -59
-40 -20 -57 -20 -592 -18 -538 3 -551 3 -578 24 -15 11 -37 33 -48 48 -21 27
-21 40 -24 577 -2 526 -2 552 17 594 14 31 31 50 58 64 37 19 56 20 586 21
486 0 553 -2 583 -16z"/>
<path d="M3004 2400 c-144 -29 -256 -144 -284 -292 -14 -72 -13 -1069 1 -1143
21 -117 95 -214 199 -264 l55 -26 597 -3 c592 -2 596 -2 655 19 80 31 171 122
202 202 21 59 21 63 19 655 l-3 597 -26 55 c-48 102 -141 174 -257 199 -62 13
-1092 14 -1158 1z m1167 -221 c30 -15 46 -32 60 -64 19 -42 19 -68 17 -594 -3
-537 -3 -550 -24 -577 -11 -15 -33 -37 -48 -48 -27 -21 -40 -21 -578 -24 -535
-2 -552 -2 -592 18 -27 13 -50 34 -64 59 l-22 40 2 558 3 558 22 31 c47 65 31
64 636 64 534 0 549 -1 588 -21z"/>
</g>
</svg>
