<?xml version="1.0" standalone="no"?>
<!DOCTYPE svg PUBLIC "-//W3C//DTD SVG 20010904//EN"
 "http://www.w3.org/TR/2001/REC-SVG-20010904/DTD/svg10.dtd">
<svg version="1.0" xmlns="http://www.w3.org/2000/svg"
 width="512.000000pt" height="512.000000pt" viewBox="0 0 512.000000 512.000000"
 preserveAspectRatio="xMidYMid meet">

<g transform="translate(0.000000,512.000000) scale(0.100000,-0.100000)"
fill="#000000" stroke="none">
<path d="M2327 4933 l-192 -191 -70 60 c-426 364 -1066 339 -1470 -57 -166
-162 -272 -356 -316 -580 -20 -99 -18 -330 4 -427 38 -177 122 -350 232 -479
l63 -74 -284 -285 c-183 -185 -285 -295 -289 -312 -4 -16 -4 -40 -1 -55 5 -19
401 -422 1261 -1282 l1253 -1254 43 6 c41 5 72 35 826 789 764 764 783 784
783 821 0 56 -43 97 -101 97 -41 0 -47 -5 -163 -120 l-122 -120 -542 543 -542
542 545 545 545 545 542 -542 542 -542 -132 -135 c-127 -129 -132 -136 -132
-176 0 -33 6 -48 29 -71 39 -39 85 -39 137 0 70 52 332 325 339 354 14 55 -3
78 -213 288 -114 113 -678 675 -1254 1248 -997 994 -1048 1043 -1088 1048
l-41 6 -192 -190z m778 -1693 l-545 -545 -227 227 -226 226 57 64 c340 373
389 903 125 1341 l-23 38 144 144 145 145 547 -547 548 -548 -545 -545z
m-1520 1591 c44 -11 125 -43 180 -71 179 -89 310 -222 401 -405 69 -140 87
-222 87 -395 0 -176 -18 -257 -93 -405 -108 -216 -282 -366 -523 -450 -48 -18
-86 -38 -100 -54 -12 -15 -55 -84 -96 -154 -40 -70 -77 -127 -81 -127 -4 0
-43 61 -86 136 -44 74 -87 144 -96 154 -9 10 -48 28 -85 40 -300 99 -522 333
-604 635 -32 115 -32 335 0 450 92 341 366 595 709 660 104 20 282 13 387 -14z
m-784 -1818 c34 -20 102 -53 152 -73 l90 -36 122 -208 c122 -209 144 -235 195
-235 51 0 73 26 195 235 l123 209 79 31 c44 17 104 45 134 62 l55 31 232 -232
c128 -128 232 -237 232 -242 0 -6 -243 -253 -540 -550 l-540 -540 -71 70 c-39
39 -282 285 -542 548 l-471 478 245 245 c134 134 245 244 246 244 1 0 29 -17
64 -37z m2304 -1143 l540 -540 -545 -545 -545 -545 -542 542 -543 543 542 542
c299 299 545 543 548 543 3 0 248 -243 545 -540z"/>
<path d="M2711 4246 c-87 -48 -50 -186 49 -186 51 0 100 49 100 99 0 75 -83
124 -149 87z"/>
<path d="M2911 3846 c-87 -48 -50 -186 49 -186 51 0 100 49 100 99 0 75 -83
124 -149 87z"/>
<path d="M2511 3446 c-87 -48 -50 -186 49 -186 51 0 100 49 100 99 0 75 -83
124 -149 87z"/>
<path d="M711 4246 c-99 -55 -46 -293 98 -437 103 -103 219 -149 376 -149 l75
0 0 -100 0 -100 -60 0 c-71 0 -107 -15 -126 -51 -17 -34 -18 -60 -2 -94 23
-50 48 -55 288 -55 240 0 265 5 288 55 16 34 15 60 -2 94 -19 36 -55 51 -126
51 l-60 0 0 100 0 100 75 0 c157 0 273 46 376 149 146 146 199 391 94 439 -33
15 -275 16 -347 1 -82 -17 -172 -65 -238 -126 l-60 -55 -60 55 c-66 61 -156
109 -238 126 -76 16 -321 14 -351 -3z m336 -201 c66 -20 127 -65 163 -122 17
-26 30 -51 30 -55 0 -14 -113 -9 -167 7 -66 20 -127 65 -163 122 -17 26 -30
51 -30 55 0 14 113 9 167 -7z m793 7 c0 -4 -13 -29 -30 -55 -36 -57 -97 -102
-163 -122 -54 -16 -167 -21 -167 -7 0 20 61 102 95 128 20 15 60 36 88 45 52
18 177 26 177 11z"/>
<path d="M911 2646 c-87 -48 -50 -186 49 -186 51 0 100 49 100 99 0 75 -83
124 -149 87z"/>
<path d="M1711 2446 c-87 -48 -50 -186 49 -186 51 0 100 49 100 99 0 75 -83
124 -149 87z"/>
<path d="M1311 2246 c-87 -48 -50 -186 49 -186 51 0 100 49 100 99 0 75 -83
124 -149 87z"/>
<path d="M2511 1846 c-87 -48 -50 -186 49 -186 51 0 100 49 100 99 0 75 -83
124 -149 87z"/>
<path d="M2111 1446 c-87 -48 -50 -186 49 -186 51 0 100 49 100 99 0 75 -83
124 -149 87z"/>
<path d="M2711 1246 c-87 -48 -50 -186 49 -186 51 0 100 49 100 99 0 75 -83
124 -149 87z"/>
<path d="M3711 3046 c-87 -48 -50 -186 49 -186 51 0 100 49 100 99 0 75 -83
124 -149 87z"/>
<path d="M4111 2646 c-87 -48 -50 -186 49 -186 51 0 100 49 100 99 0 75 -83
124 -149 87z"/>
<path d="M3511 2446 c-87 -48 -50 -186 49 -186 51 0 100 49 100 99 0 75 -83
124 -149 87z"/>
<path d="M4341 2016 c-87 -48 -50 -186 49 -186 51 0 100 49 100 99 0 75 -83
124 -149 87z"/>
</g>
</svg>
