<?xml version="1.0" standalone="no"?>
<!DOCTYPE svg PUBLIC "-//W3C//DTD SVG 20010904//EN"
 "http://www.w3.org/TR/2001/REC-SVG-20010904/DTD/svg10.dtd">
<svg version="1.0" xmlns="http://www.w3.org/2000/svg"
 width="512.000000pt" height="512.000000pt" viewBox="0 0 512.000000 512.000000"
 preserveAspectRatio="xMidYMid meet">

<g transform="translate(0.000000,512.000000) scale(0.100000,-0.100000)"
fill="#000000" stroke="none">
<path d="M2330 5110 c-494 -48 -950 -230 -1350 -538 -195 -150 -448 -432 -594
-662 -63 -99 -186 -351 -230 -471 -49 -134 -102 -340 -128 -499 -31 -195 -31
-565 0 -760 45 -276 116 -498 237 -745 132 -269 269 -460 489 -681 221 -220
412 -357 681 -489 247 -121 469 -192 745 -237 195 -31 565 -31 760 0 276 45
498 116 745 237 269 132 460 269 681 489 220 221 357 412 489 681 88 179 132
296 180 476 63 240 78 371 78 649 0 278 -15 409 -78 649 -48 180 -92 297 -180
476 -132 269 -269 460 -489 681 -221 220 -412 357 -681 489 -246 121 -474 193
-740 235 -147 23 -475 34 -615 20z m490 -211 c432 -45 877 -231 1225 -514 119
-97 302 -286 392 -406 248 -331 404 -712 459 -1124 19 -143 19 -447 0 -590
-59 -439 -235 -850 -511 -1190 -97 -119 -286 -302 -406 -392 -331 -248 -712
-404 -1124 -459 -143 -19 -447 -19 -590 0 -412 55 -793 211 -1124 459 -120 90
-309 273 -406 392 -276 340 -452 751 -511 1190 -19 143 -19 447 0 590 34 256
107 501 215 721 122 251 243 424 431 617 202 209 391 347 651 477 405 201 837
277 1299 229z"/>
<path d="M2415 3875 c-304 -68 -526 -310 -564 -615 -14 -106 -1 -148 51 -173
32 -16 43 -17 73 -7 49 16 65 46 76 136 18 145 68 244 167 336 134 122 323
163 500 109 66 -20 161 -82 215 -140 147 -159 177 -370 84 -575 -36 -77 -114
-157 -229 -232 -170 -113 -274 -250 -312 -414 -11 -44 -16 -117 -16 -227 l0
-163 28 -31 c24 -26 36 -32 72 -32 36 0 48 6 72 32 28 31 28 32 28 171 0 161
11 223 51 300 40 76 96 131 214 210 234 157 346 357 347 620 0 182 -61 338
-187 478 -163 181 -435 269 -670 217z"/>
<path d="M2499 1627 c-91 -34 -139 -102 -139 -196 0 -212 284 -279 381 -89 27
53 25 133 -4 189 -43 81 -156 126 -238 96z"/>
</g>
</svg>
