<?xml version="1.0" standalone="no"?>
<!DOCTYPE svg PUBLIC "-//W3C//DTD SVG 20010904//EN"
 "http://www.w3.org/TR/2001/REC-SVG-20010904/DTD/svg10.dtd">
<svg version="1.0" xmlns="http://www.w3.org/2000/svg"
 width="512.000000pt" height="512.000000pt" viewBox="0 0 512.000000 512.000000"
 preserveAspectRatio="xMidYMid meet">

<g transform="translate(0.000000,512.000000) scale(0.100000,-0.100000)"
fill="#000000" stroke="none">
<path d="M2410 4953 c-515 -55 -969 -365 -1204 -823 -114 -222 -155 -386 -163
-645 -4 -153 -2 -198 15 -300 53 -309 190 -579 408 -805 163 -168 322 -274
548 -365 l110 -44 151 -583 150 -583 -100 -7 c-349 -25 -497 -43 -663 -83
-432 -104 -458 -341 -49 -454 499 -138 1487 -130 1944 15 274 87 320 254 103
368 -150 79 -359 116 -871 154 l-95 7 151 584 152 584 79 29 c216 78 383 186
555 358 223 222 352 457 422 768 30 134 32 472 3 602 -131 602 -587 1069
-1166 1193 -150 33 -344 45 -480 30z m407 -178 c406 -79 763 -347 951 -713 65
-125 116 -278 137 -402 19 -122 19 -332 0 -446 -87 -504 -440 -917 -920 -1073
-44 -15 -88 -31 -98 -37 -25 -15 -35 -47 -188 -641 -74 -288 -136 -523 -139
-523 -3 0 -70 251 -149 558 -79 306 -149 569 -157 583 -10 20 -33 32 -115 59
-480 157 -840 574 -923 1069 -20 119 -20 328 -1 449 49 299 211 594 437 794
209 184 461 300 734 337 95 13 332 6 431 -14z m-338 -4171 c15 -53 38 -74 81
-74 44 0 66 21 81 75 l11 38 146 -7 c358 -17 727 -81 807 -140 27 -20 14 -31
-71 -61 -319 -111 -1046 -147 -1574 -79 -225 29 -455 92 -455 125 0 19 96 56
223 84 170 39 450 70 659 74 l82 1 10 -36z"/>
<path d="M2425 4379 c-33 -5 -98 -20 -145 -35 -309 -96 -539 -330 -636 -650
-25 -81 -28 -103 -28 -254 0 -190 15 -265 84 -409 78 -162 188 -288 341 -391
265 -177 619 -205 912 -72 250 114 442 338 523 609 32 109 43 293 24 410 -82
509 -565 865 -1075 792z m336 -178 c136 -35 277 -119 376 -223 312 -331 278
-862 -73 -1152 -85 -70 -176 -118 -289 -152 -77 -22 -108 -26 -215 -26 -106 0
-138 4 -213 26 -107 32 -183 69 -264 130 -322 243 -408 700 -198 1047 91 148
264 285 429 339 133 43 307 47 447 11z"/>
</g>
</svg>
