<?xml version="1.0" standalone="no"?>
<!DOCTYPE svg PUBLIC "-//W3C//DTD SVG 20010904//EN"
 "http://www.w3.org/TR/2001/REC-SVG-20010904/DTD/svg10.dtd">
<svg version="1.0" xmlns="http://www.w3.org/2000/svg"
 width="1024.000000pt" height="1024.000000pt" viewBox="0 0 1024.000000 1024.000000"
 preserveAspectRatio="xMidYMid meet">

<g transform="translate(0.000000,1024.000000) scale(0.100000,-0.100000)"
fill="#000000" stroke="none">
<path d="M5010 8643 c-57 -21 -143 -106 -175 -174 -36 -79 -50 -175 -37 -254
23 -138 119 -278 211 -306 l41 -12 0 -525 0 -526 -51 75 c-28 41 -73 102 -100
135 l-49 62 0 118 c0 234 -70 412 -223 572 -189 196 -447 323 -777 383 -144
26 -580 40 -605 19 -33 -27 -11 -210 46 -383 97 -298 293 -576 511 -725 183
-125 344 -182 535 -189 148 -6 239 11 349 66 l75 38 53 -66 c76 -94 147 -203
195 -298 l41 -83 0 -509 c0 -476 1 -510 18 -531 22 -27 65 -29 92 -5 19 18 20
34 20 528 l0 510 34 71 c41 84 132 222 209 316 l56 67 75 -38 c112 -56 201
-73 360 -66 150 6 233 26 361 87 313 150 538 423 668 811 59 175 85 367 55
397 -15 15 -349 16 -486 1 -260 -28 -499 -110 -692 -237 -292 -190 -438 -445
-428 -748 l3 -100 -51 -65 c-29 -35 -77 -99 -108 -143 l-56 -78 0 526 0 526
28 11 c122 44 203 150 232 304 33 175 -77 388 -226 439 -59 20 -145 19 -204
-1z m165 -132 c124 -56 171 -231 101 -375 -18 -37 -43 -68 -70 -88 -36 -26
-47 -29 -94 -26 -101 9 -171 99 -180 233 -7 117 38 213 120 254 52 26 71 26
123 2z m-1524 -431 c378 -39 706 -176 881 -370 101 -111 170 -262 185 -404 l6
-60 -89 79 c-221 198 -370 303 -573 402 -147 72 -170 75 -200 21 -27 -47 -6
-69 131 -136 68 -33 164 -87 213 -119 113 -74 321 -242 400 -322 67 -69 68
-67 -22 -101 -270 -102 -623 12 -866 281 -154 169 -283 425 -341 677 l-14 62
93 0 c51 0 139 -5 196 -10z m3219 -3 c0 -31 -71 -269 -103 -344 -121 -286
-332 -520 -565 -625 -185 -84 -405 -92 -578 -21 -24 10 -44 21 -44 24 0 16
198 194 302 272 143 107 257 178 378 235 110 52 130 67 130 97 0 30 -37 75
-62 75 -25 0 -276 -126 -365 -183 -92 -60 -260 -191 -360 -283 l-83 -75 0 43
c1 192 144 419 351 557 248 166 501 236 877 240 95 1 122 -2 122 -12z"/>
<path d="M2653 8225 c-173 -47 -306 -172 -365 -343 l-23 -67 0 -1290 0 -1290
22 -57 c26 -69 80 -154 133 -212 l40 -43 -51 -33 c-58 -37 -96 -85 -146 -185
-54 -108 -342 -646 -468 -875 -62 -113 -142 -260 -176 -328 l-64 -122 -5 -173
c-3 -94 -2 -198 3 -231 20 -160 158 -297 328 -326 45 -8 998 -10 3279 -8
l3215 3 58 23 c69 28 148 89 182 141 57 85 68 133 73 319 7 266 15 243 -208
647 -172 313 -430 786 -504 926 -57 107 -123 184 -180 210 l-25 12 58 63 c67
74 114 156 136 239 22 86 23 2540 0 2624 -24 91 -66 162 -140 236 -121 121
-219 155 -447 155 -140 0 -148 -1 -162 -22 -20 -28 -20 -58 -2 -84 13 -17 31
-20 178 -24 157 -6 165 -7 229 -38 80 -38 159 -118 197 -199 l27 -58 0 -1280
0 -1280 -30 -60 c-64 -127 -185 -221 -314 -245 -74 -14 -4660 -13 -4756 0 -38
6 -93 21 -121 34 -70 32 -155 119 -195 202 l-34 69 0 1270 0 1270 23 58 c47
115 139 202 251 237 50 16 92 20 197 20 121 0 136 2 154 20 11 11 20 31 20 45
0 14 -9 34 -20 45 -18 18 -33 20 -167 19 -94 0 -167 -5 -200 -14z m47 -3400
c55 -12 414 -14 2415 -14 1470 0 2367 3 2395 10 99 21 105 21 164 -1 82 -31
140 -87 188 -185 45 -91 370 -689 521 -960 161 -288 176 -318 177 -348 0 -38
-22 -78 -64 -115 -74 -64 -26 -62 -1247 -62 l-1108 0 -7 38 c-14 76 -155 457
-176 475 -19 16 -74 17 -849 17 l-829 0 -14 -22 c-8 -13 -50 -132 -92 -265
l-78 -243 -1092 0 c-1072 0 -1093 0 -1158 20 -102 32 -176 109 -161 168 3 14
32 71 64 127 58 100 447 824 600 1117 73 139 88 161 132 194 49 36 109 63 139
63 8 0 44 -6 80 -14z m3237 -1453 c34 -97 64 -187 68 -199 l6 -23 -890 0 -890
0 35 103 c19 56 48 146 65 200 l30 97 757 0 757 0 62 -178z m-4209 -297 c114
-59 -137 -55 3442 -53 l3275 3 50 24 c28 14 54 27 59 29 16 8 -6 -112 -29
-158 -28 -54 -65 -90 -122 -119 l-43 -21 -3239 0 c-2875 0 -3243 2 -3275 15
-45 19 -108 75 -138 122 -15 25 -23 59 -28 110 -3 40 -4 73 -3 73 2 0 25 -11
51 -25z"/>
<path d="M2695 4558 c-27 -15 -35 -28 -35 -60 0 -17 9 -33 22 -42 20 -14 268
-16 2435 -16 2400 0 2413 0 2433 20 27 27 26 75 -2 94 -20 14 -267 16 -2428
16 -1774 -1 -2410 -4 -2425 -12z"/>
<path d="M2544 4284 c-20 -19 -24 -31 -19 -52 3 -15 13 -33 23 -40 13 -10 534
-12 2575 -10 2520 3 2559 3 2573 22 20 28 17 63 -6 86 -20 20 -33 20 -2570 20
l-2551 0 -25 -26z"/>
<path d="M3789 4030 c-1129 -4 -1359 -7 -1372 -19 -25 -20 -22 -76 5 -95 20
-14 291 -15 2688 -10 1783 4 2674 9 2692 16 49 18 50 85 2 106 -27 13 -967 13
-4015 2z"/>
<path d="M2873 7939 c-61 -12 -123 -41 -166 -78 -43 -38 -91 -131 -107 -204
-7 -36 -9 -394 -8 -1157 l3 -1105 26 -55 c36 -77 109 -153 177 -187 l57 -28
2255 0 2255 0 69 34 c82 40 144 99 183 173 l28 53 3 1105 c2 798 0 1122 -8
1165 -34 173 -153 279 -332 293 -85 6 -118 -11 -118 -62 0 -51 27 -69 109 -71
78 -2 124 -25 166 -79 57 -75 55 -24 55 -1199 0 -790 -3 -1090 -12 -1118 -15
-51 -69 -114 -122 -142 l-41 -22 -2225 0 -2225 0 -41 22 c-48 25 -101 83 -120
129 -12 28 -14 221 -14 1123 0 1066 0 1091 20 1144 34 91 100 139 198 143 37
1 70 3 74 3 18 2 38 36 38 66 0 60 -59 78 -177 54z"/>
<path d="M5802 6284 c-28 -19 -30 -74 -4 -97 25 -23 68 -21 92 3 27 27 25 56
-5 85 -28 29 -51 31 -83 9z"/>
<path d="M5092 2210 c-12 -5 -27 -21 -32 -36 -29 -76 71 -127 115 -60 36 55
-21 120 -83 96z"/>
</g>
</svg>
