<?xml version="1.0" standalone="no"?>
<!DOCTYPE svg PUBLIC "-//W3C//DTD SVG 20010904//EN"
 "http://www.w3.org/TR/2001/REC-SVG-20010904/DTD/svg10.dtd">
<svg version="1.0" xmlns="http://www.w3.org/2000/svg"
 width="512.000000pt" height="512.000000pt" viewBox="0 0 512.000000 512.000000"
 preserveAspectRatio="xMidYMid meet">

<g transform="translate(0.000000,512.000000) scale(0.100000,-0.100000)"
fill="#000000" stroke="none">
<path d="M1030 4404 c-157 -42 -295 -189 -329 -352 -16 -75 -16 -2909 0 -2984
35 -165 173 -311 334 -353 51 -13 175 -15 902 -15 l843 0 0 115 0 114 -797 3
c-753 3 -800 4 -838 22 -70 33 -121 73 -158 128 -70 103 -67 27 -67 1478 0
1451 -3 1375 67 1478 37 55 88 95 158 128 38 18 85 19 838 22 l797 3 0 114 0
115 -847 -1 c-713 0 -857 -3 -903 -15z"/>
<path d="M3662 3483 c-56 -27 -78 -95 -48 -151 8 -15 155 -166 325 -337 l311
-310 -1159 -5 c-1158 -5 -1160 -5 -1188 -26 -61 -45 -61 -143 0 -188 28 -21
29 -21 1190 -24 l1162 -2 -323 -323 c-300 -300 -324 -326 -329 -364 -10 -78
57 -142 135 -128 32 5 95 65 475 443 l437 438 0 54 0 54 -427 429 c-236 236
-440 435 -455 443 -35 18 -65 17 -106 -3z"/>
</g>
</svg>
