<?xml version="1.0" standalone="no"?>
<!DOCTYPE svg PUBLIC "-//W3C//DTD SVG 20010904//EN"
 "http://www.w3.org/TR/2001/REC-SVG-20010904/DTD/svg10.dtd">
<svg version="1.0" xmlns="http://www.w3.org/2000/svg"
 width="512.000000pt" height="512.000000pt" viewBox="0 0 512.000000 512.000000"
 preserveAspectRatio="xMidYMid meet">

<g transform="translate(0.000000,512.000000) scale(0.100000,-0.100000)"
fill="#000000" stroke="none">
<path d="M1431 5009 c-205 -103 -288 -351 -185 -556 29 -56 136 -166 173 -178
20 -6 21 -14 21 -152 l0 -145 -68 63 c-83 78 -171 131 -277 166 -77 26 -90 27
-349 31 l-269 4 6 -109 c10 -198 73 -339 212 -478 92 -92 176 -144 290 -182
72 -23 100 -26 268 -31 l187 -4 0 -88 c0 -87 0 -88 -28 -99 -16 -7 -55 -39
-88 -72 -76 -77 -92 -77 -168 0 -78 79 -138 106 -222 98 -159 -15 -276 -133
-291 -292 -10 -112 5 -141 239 -455 116 -154 209 -282 207 -283 -20 -15 -301
-267 -357 -321 -164 -159 -270 -351 -313 -571 -18 -90 -18 -310 0 -400 31
-156 98 -309 192 -436 57 -78 184 -201 253 -247 l49 -32 -336 0 -337 0 0 2080
0 2080 -80 0 -80 0 0 -2160 0 -2160 2480 0 2480 0 0 80 0 80 -240 0 -240 0 0
1736 0 1737 80 81 80 81 0 -217 0 -218 80 0 80 0 0 360 0 360 -360 0 -360 0 0
-80 0 -80 225 -2 225 -3 -576 -610 c-317 -335 -580 -614 -585 -620 -6 -6 -83
64 -209 190 l-200 200 -493 -493 c-270 -270 -497 -492 -502 -492 -6 0 -30 19
-52 43 l-42 42 195 260 c244 324 249 333 248 445 0 72 -4 93 -26 136 -39 75
-70 107 -137 143 -130 69 -238 50 -347 -60 -76 -77 -92 -77 -168 0 -33 33 -72
65 -88 72 l-28 11 0 168 0 168 178 4 c158 4 184 7 243 30 94 35 148 69 213
134 104 104 155 220 163 377 l6 99 -259 -4 c-319 -6 -341 -12 -521 -144 l-23
-16 0 95 c0 88 2 96 21 102 37 12 144 122 173 178 103 204 20 454 -185 556
-78 39 -100 39 -178 0z m150 -172 c62 -46 94 -115 94 -197 0 -51 -6 -77 -26
-115 -26 -52 -97 -115 -129 -115 -32 0 -103 63 -129 115 -55 105 -25 242 68
312 23 18 51 33 61 33 10 0 38 -15 61 -33z m-520 -789 c95 -35 152 -71 215
-135 64 -65 98 -120 131 -210 41 -112 50 -106 -149 -101 -153 4 -181 8 -239
30 -95 35 -152 71 -215 135 -64 65 -98 120 -131 210 -41 112 -50 106 150 101
152 -4 180 -8 238 -30z m1169 18 c0 -7 -16 -45 -35 -83 -43 -86 -103 -144
-193 -186 -65 -31 -71 -32 -229 -35 -138 -4 -163 -2 -163 11 0 33 73 157 114
195 49 45 126 88 183 101 21 5 102 9 181 10 114 1 142 -2 142 -13z m2170
-2181 l0 -1645 -80 0 -80 0 0 1567 0 1568 77 77 c43 43 79 78 80 78 2 0 3
-740 3 -1645z m-320 -165 l0 -1480 -80 0 -80 0 0 1396 0 1397 78 83 c42 45 78
83 80 83 1 1 2 -665 2 -1479z m-3040 1344 c30 -31 78 -67 105 -80 99 -47 196
-21 295 80 38 39 62 56 80 56 18 0 42 -17 80 -56 30 -31 78 -67 105 -80 99
-47 196 -21 295 80 59 61 82 68 143 42 67 -28 107 -104 93 -179 -4 -22 -80
-132 -221 -320 l-215 -287 -280 0 -280 0 -215 287 c-141 188 -217 298 -221
320 -18 98 55 191 151 193 24 0 42 -12 85 -56z m2042 -181 l38 -37 0 -1303 0
-1303 -80 0 -80 0 0 1302 0 1302 37 38 c20 21 39 38 42 38 3 0 22 -17 43 -37z
m678 -1333 l0 -1310 -80 0 -80 0 0 1226 0 1226 78 84 c42 46 78 83 80 84 1 0
2 -589 2 -1310z m-960 -90 l0 -1220 -337 0 -336 0 49 32 c70 47 196 169 253
247 200 272 260 611 165 937 -54 189 -134 317 -299 479 l-123 120 312 313
c171 171 312 312 313 312 2 0 3 -549 3 -1220z m640 -77 l0 -1143 -80 0 -80 0
0 1222 0 1223 80 -80 80 -80 0 -1142z m-1417 588 c297 -266 366 -363 433 -611
25 -89 25 -317 1 -413 -83 -332 -337 -591 -665 -679 -110 -29 -344 -36 -470
-14 -293 51 -535 233 -667 501 -70 141 -88 223 -89 395 0 167 19 258 83 395
65 138 136 220 369 426 l213 189 290 0 290 0 212 -189z"/>
<path d="M1446 1232 c-130 -389 -236 -712 -236 -718 0 -10 138 -59 146 -51 7
7 474 1410 474 1424 0 10 -109 53 -136 53 -7 0 -107 -285 -248 -708z"/>
<path d="M1040 1587 c-49 -16 -133 -102 -148 -153 -28 -94 -8 -169 63 -239
101 -102 229 -102 330 0 98 97 101 222 8 325 -65 72 -158 97 -253 67z m135
-172 c16 -15 25 -36 25 -55 0 -19 -9 -40 -25 -55 -15 -16 -36 -25 -55 -25 -19
0 -40 9 -55 25 -16 15 -25 36 -25 55 0 19 9 40 25 55 15 16 36 25 55 25 19 0
40 -9 55 -25z"/>
<path d="M1840 1267 c-49 -16 -133 -102 -148 -153 -28 -94 -8 -169 63 -239
101 -102 229 -102 330 0 98 97 101 222 8 325 -65 72 -158 97 -253 67z m135
-172 c50 -49 15 -135 -55 -135 -19 0 -40 9 -55 25 -16 15 -25 36 -25 55 0 19
9 40 25 55 15 16 36 25 55 25 19 0 40 -9 55 -25z"/>
</g>
</svg>
